<svg xmlns="http://www.w3.org/2000/svg" width="24" height="24" viewBox="0 0 24 24">
  <path d="M10.5857864,12 L8.29092884,9.7051424 C7.90040455,9.31461811 7.90040455,8.68145313 8.29092884,8.29092884 C8.68145313,7.90040455 9.31461811,7.90040455 9.7051424,8.29092884 L12,10.5857864 L14.2987148,8.28707169 C14.689239,7.89654739 15.322404,7.89654739 15.7129283,8.28707169 C16.1034526,8.67759598 16.1034526,9.31076096 15.7129283,9.70128525 L13.4142136,12 L15.7064904,14.2922768 C16.0970147,14.6828011 16.0970147,15.3159661 15.7064904,15.7064904 C15.3159661,16.0970147 14.6828011,16.0970147 14.2922768,15.7064904 L12,13.4142136 L9.70680489,15.7074087 C9.3162806,16.097933 8.68311562,16.097933 8.29259133,15.7074087 C7.90206703,15.3168844 7.90206703,14.6837194 8.29259133,14.2931951 L10.5857864,12 Z M12,23 C5.92486775,23 1,18.0751322 1,12 C1,5.92486775 5.92486775,1 12,1 C18.0751322,1 23,5.92486775 23,12 C23,18.0751322 18.0751322,23 12,23 Z M12,21 C16.9705627,21 21,16.9705627 21,12 C21,7.02943725 16.9705627,3 12,3 C7.02943725,3 3,7.02943725 3,12 C3,16.9705627 7.02943725,21 12,21 Z"/>
</svg>
