<svg xmlns="http://www.w3.org/2000/svg" width="24" height="24" viewBox="0 0 24 24">
  <path d="M12,23 C5.92486775,23 1,18.0751322 1,12 C1,5.92486775 5.92486775,1 12,1 C18.0751322,1 23,5.92486775 23,12 C23,18.0751322 18.0751322,23 12,23 Z M12,21 C16.9705627,21 21,16.9705627 21,12 C21,7.02943725 16.9705627,3 12,3 C7.02943725,3 3,7.02943725 3,12 C3,16.9705627 7.02943725,21 12,21 Z M9.23480344,11.8217199 L10.7446257,13.4573606 L14.7122819,8.38396408 C15.0525092,7.94891941 15.6809912,7.87205469 16.1160359,8.21228194 C16.5510806,8.55250918 16.6279453,9.18099125 16.2877181,9.61603592 L11.5954104,15.6160359 C11.2156033,16.1016909 10.4910716,16.1313114 10.0728889,15.6782801 L7.76519656,13.1782801 C7.3905928,12.7724594 7.41589916,12.1398003 7.8217199,11.7651966 C8.22754063,11.3905928 8.86019969,11.4158992 9.23480344,11.8217199 Z"/>
</svg>
