<svg xmlns="http://www.w3.org/2000/svg" width="24" height="24" viewBox="0 0 24 24">
  <path d="M22.0488001,18.0287141 C22.5852265,18.9942816 22.2373389,20.2118882 21.2717714,20.7483146 C20.9746554,20.913379 20.640374,21 20.3004855,21 L3.69951446,21 C2.59494496,21 1.69951446,20.1045695 1.69951446,19 C1.69951446,18.6601115 1.78613546,18.3258301 1.95119991,18.0287141 L10.2516854,3.08784017 C10.7881118,2.1222727 12.0057184,1.77438511 12.9712859,2.31081148 C13.297766,2.49218933 13.5669367,2.76136004 13.7483146,3.08784017 L22.0488001,18.0287141 Z M12,4.05912603 L3.69951446,19 L20.3004855,19 L12,4.05912603 Z M11,9.5 C11,8.94771525 11.4477153,8.5 12,8.5 C12.5522847,8.5 13,8.94771525 13,9.5 L13,13 C13,13.5522847 12.5522847,14 12,14 C11.4477153,14 11,13.5522847 11,13 L11,9.5 Z M12,17.5 C11.3096441,17.5 10.75,16.9403559 10.75,16.25 C10.75,15.5596441 11.3096441,15 12,15 C12.6903559,15 13.25,15.5596441 13.25,16.25 C13.25,16.9403559 12.6903559,17.5 12,17.5 Z"/>
</svg>
