<?xml version="1.0" encoding="UTF-8" standalone="no"?>
<svg width="24px" height="24px" viewBox="0 0 24 24" version="1.1" xmlns="http://www.w3.org/2000/svg" xmlns:xlink="http://www.w3.org/1999/xlink">
  <title
     id="title878">verified</title>
  <g
     fill-rule="evenodd"
     fill="none"
     stroke-width="1"
     stroke="none"
     id="Symbols">
    <g
       fill-rule="nonzero"
       fill="#000000"
       transform="translate(-2.000000, -2.000000)"
       id="icon---15">
      <path
         d="m 15.435024,8.4174024 c -0.261012,0.01932 -0.514279,0.137739 -0.688358,0.347663 l -4.000839,4.8246996 -1.6260421,-1.94196 c -0.3501858,-0.41827 -1.0179864,-0.465844 -1.4223996,-0.09601 -0.4044127,0.369831 -0.442327,0.990964 -0.092142,1.409236 l 2.0898513,2.496362 c 0.041411,0.04946 0.086061,0.09599 0.1339551,0.139375 0.5699893,0.516285 1.4851783,0.446196 1.9752543,-0.144795 l 4.462324,-5.381425 C 16.614786,9.6506994 16.573754,9.0292724 16.167518,8.6613114 15.964399,8.4773304 15.696037,8.3980804 15.435025,8.4174054 Z M 12,20.439467 9.2521337,21.401104 C 8.802916,21.558312 8.3051442,21.377137 8.0620743,20.967958 L 6.5752151,18.465007 3.8520989,17.435369 C 3.4069273,17.267045 3.1420685,16.808296 3.2188815,16.338605 L 3.6887474,13.465498 2.2645576,10.926365 C 2.0317328,10.51127 2.1237174,9.9896002 2.4844716,9.6791699 L 4.6912071,7.7802665 5.232338,4.9197258 C 5.3208013,4.4520882 5.7265887,4.1115923 6.2024832,4.1056772 L 9.1135323,4.0694951 11.366783,2.226026 c 0.368358,-0.301368 0.898076,-0.301368 1.266434,0 l 2.253251,1.8434691 2.911049,0.036182 c 0.475894,0.00592 0.881682,0.346411 0.970145,0.8140486 l 0.541131,2.8605407 2.206735,1.8989034 c 0.360755,0.3104303 0.452739,0.8321002 0.219914,1.2471952 l -1.424189,2.539133 0.469866,2.873107 c 0.07681,0.469691 -0.188046,0.92844 -0.633218,1.096764 l -2.723116,1.029638 -1.486859,2.502951 c -0.24307,0.409179 -0.740842,0.590354 -1.19006,0.433146 z m -0.330315,-2.003338 c 0.213852,-0.07484 0.446779,-0.07484 0.66063,0 l 2.305965,0.806991 1.247748,-2.100437 c 0.115714,-0.194791 0.294147,-0.344513 0.506072,-0.424644 l 2.285195,-0.864055 -0.394304,-2.411065 c -0.03657,-0.223598 0.0039,-0.452987 0.114718,-0.650594 L 19.590866,10.661526 17.739009,9.0679965 C 17.567271,8.9202153 17.450807,8.7184945 17.408694,8.4958743 L 16.954586,6.0953547 14.51168,6.0649912 C 14.285129,6.0621754 14.06625,5.9825096 13.890891,5.8390425 L 12,4.292033 10.109109,5.8390425 C 9.9337505,5.9825096 9.7148707,6.0621754 9.4883196,6.0649912 L 7.0454143,6.0953547 6.5913061,8.4958743 c -0.042113,0.2226202 -0.1585768,0.424341 -0.330315,0.5721222 l -1.8518567,1.5935295 1.195157,2.130799 c 0.1108369,0.197607 0.1512843,0.426996 0.1147172,0.650594 l -0.3943038,2.411065 2.2851951,0.864055 c 0.2119253,0.08013 0.3903578,0.229853 0.5060719,0.424644 L 9.36372,19.24312 Z"
         style="color:#000000;font-style:normal;font-variant:normal;font-weight:normal;font-stretch:normal;font-size:medium;line-height:normal;font-family:sans-serif;font-variant-ligatures:normal;font-variant-position:normal;font-variant-caps:normal;font-variant-numeric:normal;font-variant-alternates:normal;font-feature-settings:normal;text-indent:0;text-align:start;text-decoration:none;text-decoration-line:none;text-decoration-style:solid;text-decoration-color:#000000;letter-spacing:normal;word-spacing:normal;text-transform:none;writing-mode:lr-tb;direction:ltr;text-orientation:mixed;dominant-baseline:auto;baseline-shift:baseline;text-anchor:start;white-space:normal;shape-padding:0;clip-rule:nonzero;display:inline;overflow:visible;visibility:visible;opacity:1;isolation:auto;mix-blend-mode:normal;color-interpolation:sRGB;color-interpolation-filters:linearRGB;solid-color:#000000;solid-opacity:1;vector-effect:none;fill:#000000;fill-opacity:1;fill-rule:nonzero;stroke:none;stroke-width:1.20433068;stroke-linecap:butt;stroke-linejoin:miter;stroke-miterlimit:4;stroke-dasharray:none;stroke-dashoffset:0;stroke-opacity:1;color-rendering:auto;image-rendering:auto;shape-rendering:auto;text-rendering:auto;enable-background:accumulate"
         id="verified" />
    </g>
  </g>
</svg>
